<mxfile host="drawio-plugin" modified="2024-04-17T07:47:26.119Z" agent="5.0 (Windows NT 10.0; Win64; x64) AppleWebKit/537.36 (KHTML, like Gecko) Chrome/122.0.0.0 Safari/537.36" version="20.5.3" etag="gskUtxBSS2EzZQg0-9t5" type="embed"><diagram id="PCnGooOmGFJIJhcdWKv7" name="Page-1"><mxGraphModel dx="402" dy="299" grid="1" gridSize="10" guides="1" tooltips="1" connect="1" arrows="1" fold="1" page="1" pageScale="1" pageWidth="850" pageHeight="1100" math="0" shadow="0"><root><mxCell id="0"/><mxCell id="1" parent="0"/><mxCell id="2" value="0" style="rounded=1;whiteSpace=wrap;html=1;" vertex="1" parent="1"><mxGeometry x="330" y="420" width="120" height="60" as="geometry"/></mxCell><mxCell id="3" value="" style="line;strokeWidth=2;direction=south;html=1;" vertex="1" parent="1"><mxGeometry x="240" y="330" width="10" height="160" as="geometry"/></mxCell><mxCell id="4" value="Schauen des Films" style="rounded=1;whiteSpace=wrap;html=1;" vertex="1" parent="1"><mxGeometry x="430" y="350" width="120" height="60" as="geometry"/></mxCell><mxCell id="5" value="" style="edgeStyle=elbowEdgeStyle;elbow=horizontal;endArrow=classic;html=1;curved=0;rounded=0;endSize=8;startSize=8;exitX=0.654;exitY=0.79;exitDx=0;exitDy=0;exitPerimeter=0;entryX=0;entryY=0.25;entryDx=0;entryDy=0;" edge="1" parent="1" source="3" target="2"><mxGeometry width="50" height="50" relative="1" as="geometry"><mxPoint x="270" y="480" as="sourcePoint"/><mxPoint x="320" y="430" as="targetPoint"/></mxGeometry></mxCell><mxCell id="6" value="Warten auf Termin" style="text;html=1;align=center;verticalAlign=middle;whiteSpace=wrap;rounded=0;" vertex="1" parent="1"><mxGeometry x="153" y="365" width="60" height="30" as="geometry"/></mxCell><mxCell id="7" value="" style="ellipse;whiteSpace=wrap;html=1;aspect=fixed;" vertex="1" parent="1"><mxGeometry x="620" y="355" width="50" height="50" as="geometry"/></mxCell><mxCell id="8" value="" style="edgeStyle=segmentEdgeStyle;endArrow=classic;html=1;curved=0;rounded=0;endSize=8;startSize=8;exitX=1;exitY=0.5;exitDx=0;exitDy=0;entryX=0;entryY=0.5;entryDx=0;entryDy=0;" edge="1" parent="1" source="4" target="7"><mxGeometry width="50" height="50" relative="1" as="geometry"><mxPoint x="470" y="390" as="sourcePoint"/><mxPoint x="520" y="340" as="targetPoint"/></mxGeometry></mxCell><mxCell id="9" value="" style="edgeStyle=elbowEdgeStyle;elbow=horizontal;endArrow=classic;html=1;curved=0;rounded=0;endSize=8;startSize=8;exitX=1;exitY=0.5;exitDx=0;exitDy=0;entryX=0;entryY=0.5;entryDx=0;entryDy=0;" edge="1" parent="1" source="2" target="10"><mxGeometry width="50" height="50" relative="1" as="geometry"><mxPoint x="480" y="480" as="sourcePoint"/><mxPoint x="590" y="460" as="targetPoint"/><Array as="points"><mxPoint x="585" y="450"/></Array></mxGeometry></mxCell><mxCell id="10" value="" style="ellipse;whiteSpace=wrap;html=1;aspect=fixed;" vertex="1" parent="1"><mxGeometry x="620" y="425" width="50" height="50" as="geometry"/></mxCell><mxCell id="11" value="Kauf von Snacks" style="rounded=1;whiteSpace=wrap;html=1;" vertex="1" parent="1"><mxGeometry x="280" y="350" width="120" height="60" as="geometry"/></mxCell><mxCell id="12" value="" style="edgeStyle=elbowEdgeStyle;elbow=horizontal;endArrow=classic;html=1;curved=0;rounded=0;endSize=8;startSize=8;entryX=0;entryY=0.5;entryDx=0;entryDy=0;exitX=1;exitY=0.5;exitDx=0;exitDy=0;" edge="1" parent="1" source="11" target="4"><mxGeometry width="50" height="50" relative="1" as="geometry"><mxPoint x="400" y="380" as="sourcePoint"/><mxPoint x="450" y="330" as="targetPoint"/></mxGeometry></mxCell><mxCell id="13" value="" style="endArrow=classic;html=1;rounded=0;entryX=0;entryY=0.5;entryDx=0;entryDy=0;exitX=0.319;exitY=0.4;exitDx=0;exitDy=0;exitPerimeter=0;" edge="1" parent="1" source="3" target="11"><mxGeometry width="50" height="50" relative="1" as="geometry"><mxPoint x="120" y="430" as="sourcePoint"/><mxPoint x="140" y="440" as="targetPoint"/></mxGeometry></mxCell></root></mxGraphModel></diagram></mxfile>